<?xml version="1.0" encoding="UTF-8"?>
<svg xmlns="http://www.w3.org/2000/svg" viewBox="0 0 940 1860" width="940" height="1860">
  <defs>
    <marker id="a" markerWidth="8" markerHeight="7" refX="7" refY="3.5" orient="auto">
      <polygon points="0 0,8 3.5,0 7" fill="#94A3B8"/>
    </marker>
  </defs>
  <rect width="940" height="1860" fill="#F0F4F8"/>

  <!-- HEADER -->
  <rect width="940" height="72" fill="#1A202C"/>
  <text x="470" y="38" text-anchor="middle" font-family="-apple-system,BlinkMacSystemFont,'Apple SD Gothic Neo','Malgun Gothic',sans-serif" font-size="18" font-weight="700" fill="#F8FAFC">QR오더 손님 화면 — 와이어프레임</text>
  <text x="470" y="58" text-anchor="middle" font-family="-apple-system,sans-serif" font-size="11" fill="#94A3B8">2026-06-12 · customer.html 기준</text>

  <!-- FLOW DIAGRAM -->
  <rect x="20" y="86" width="900" height="155" rx="10" fill="white" stroke="#E2E8F0" stroke-width="1.5"/>
  <text x="36" y="106" font-family="-apple-system,sans-serif" font-size="10" font-weight="700" fill="#94A3B8" letter-spacing="0.5">화면 전환 플로우</text>

  <rect x="36" y="112" width="82" height="26" rx="6" fill="#F0FDF4" stroke="#22C55E" stroke-width="1.5"/>
  <text x="77" y="129" text-anchor="middle" font-family="-apple-system,sans-serif" font-size="9.5" font-weight="700" fill="#15803D">QR 스캔 진입</text>
  <line x1="118" y1="125" x2="132" y2="125" stroke="#94A3B8" stroke-width="1.5" marker-end="url(#a)"/>

  <rect x="134" y="112" width="72" height="26" rx="6" fill="#EFF6FF" stroke="#4A7FE0" stroke-width="1.5"/>
  <text x="170" y="129" text-anchor="middle" font-family="-apple-system,sans-serif" font-size="9.5" font-weight="700" fill="#1D4ED8">메뉴 화면</text>
  <line x1="206" y1="125" x2="220" y2="125" stroke="#94A3B8" stroke-width="1.5" marker-end="url(#a)"/>

  <rect x="222" y="112" width="72" height="26" rx="6" fill="#EFF6FF" stroke="#4A7FE0" stroke-width="1.5"/>
  <text x="258" y="129" text-anchor="middle" font-family="-apple-system,sans-serif" font-size="9.5" font-weight="700" fill="#1D4ED8">결제 화면</text>
  <line x1="294" y1="125" x2="308" y2="125" stroke="#94A3B8" stroke-width="1.5" marker-end="url(#a)"/>

  <rect x="310" y="112" width="72" height="26" rx="6" fill="#FDF4FF" stroke="#A855F7" stroke-width="1.5"/>
  <text x="346" y="129" text-anchor="middle" font-family="-apple-system,sans-serif" font-size="9.5" font-weight="700" fill="#7E22CE">알림 시트</text>
  <line x1="382" y1="125" x2="396" y2="125" stroke="#94A3B8" stroke-width="1.5" marker-end="url(#a)"/>

  <rect x="398" y="112" width="72" height="26" rx="6" fill="#FFFBEB" stroke="#F59E0B" stroke-width="1.5"/>
  <text x="434" y="129" text-anchor="middle" font-family="-apple-system,sans-serif" font-size="9.5" font-weight="700" fill="#92400E">처리 중</text>
  <line x1="470" y1="125" x2="484" y2="125" stroke="#94A3B8" stroke-width="1.5" marker-end="url(#a)"/>

  <rect x="486" y="112" width="72" height="26" rx="6" fill="#F0FDF4" stroke="#22C55E" stroke-width="1.5"/>
  <text x="522" y="129" text-anchor="middle" font-family="-apple-system,sans-serif" font-size="9.5" font-weight="700" fill="#15803D">주문 완료</text>

  <!-- 처리중 → 에러 -->
  <line x1="434" y1="138" x2="434" y2="157" stroke="#94A3B8" stroke-width="1.5" stroke-dasharray="3 3"/>
  <line x1="434" y1="157" x2="576" y2="157" stroke="#94A3B8" stroke-width="1.5" stroke-dasharray="3 3" marker-end="url(#a)"/>
  <rect x="578" y="145" width="72" height="26" rx="6" fill="#FEF2F2" stroke="#EF4444" stroke-width="1.5"/>
  <text x="614" y="162" text-anchor="middle" font-family="-apple-system,sans-serif" font-size="9.5" font-weight="700" fill="#B91C1C">에러 화면</text>
  <text x="504" y="154" text-anchor="middle" font-family="-apple-system,sans-serif" font-size="8" fill="#94A3B8">오류 발생</text>

  <!-- 메뉴 → 세션만료 -->
  <line x1="170" y1="138" x2="170" y2="177" stroke="#94A3B8" stroke-width="1.5" stroke-dasharray="3 3"/>
  <line x1="170" y1="177" x2="728" y2="177" stroke="#94A3B8" stroke-width="1.5" stroke-dasharray="3 3" marker-end="url(#a)"/>
  <text x="450" y="174" text-anchor="middle" font-family="-apple-system,sans-serif" font-size="8" fill="#94A3B8">무활동 5분</text>
  <rect x="730" y="165" width="72" height="26" rx="6" fill="#F8FAFC" stroke="#94A3B8" stroke-width="1.5"/>
  <text x="766" y="182" text-anchor="middle" font-family="-apple-system,sans-serif" font-size="9.5" font-weight="700" fill="#475569">세션 만료</text>

  <!-- 범례 -->
  <rect x="828" y="112" width="12" height="12" rx="2" fill="#F0FDF4" stroke="#22C55E" stroke-width="1"/>
  <text x="846" y="122" font-family="-apple-system,sans-serif" font-size="8.5" fill="#718096">시작/완료</text>
  <rect x="828" y="130" width="12" height="12" rx="2" fill="#EFF6FF" stroke="#4A7FE0" stroke-width="1"/>
  <text x="846" y="140" font-family="-apple-system,sans-serif" font-size="8.5" fill="#718096">주요 화면</text>
  <rect x="828" y="148" width="12" height="12" rx="2" fill="#FDF4FF" stroke="#A855F7" stroke-width="1"/>
  <text x="846" y="158" font-family="-apple-system,sans-serif" font-size="8.5" fill="#718096">오버레이/시트</text>
  <rect x="828" y="166" width="12" height="12" rx="2" fill="#FEF2F2" stroke="#EF4444" stroke-width="1"/>
  <text x="846" y="176" font-family="-apple-system,sans-serif" font-size="8.5" fill="#718096">에러/만료</text>

  <!-- ROW SECTION LABELS -->
  <text x="20" y="254" font-family="-apple-system,sans-serif" font-size="10" font-weight="700" fill="#94A3B8" letter-spacing="0.5">메뉴 진입 흐름</text>
  <text x="20" y="782" font-family="-apple-system,sans-serif" font-size="10" font-weight="700" fill="#94A3B8" letter-spacing="0.5">결제·알림 흐름</text>
  <text x="20" y="1312" font-family="-apple-system,sans-serif" font-size="10" font-weight="700" fill="#94A3B8" letter-spacing="0.5">완료·예외 흐름</text>
  <line x1="20" y1="258" x2="920" y2="258" stroke="#CBD5E1" stroke-width="0.5" stroke-dasharray="4 4"/>
  <line x1="20" y1="786" x2="920" y2="786" stroke="#CBD5E1" stroke-width="0.5" stroke-dasharray="4 4"/>
  <line x1="20" y1="1316" x2="920" y2="1316" stroke="#CBD5E1" stroke-width="0.5" stroke-dasharray="4 4"/>

  <!-- ① 메뉴 화면 -->
  <g id="01_menu" transform="translate(45,262)">
    <text x="115" y="-8" text-anchor="middle" font-family="-apple-system,sans-serif" font-size="11" font-weight="700" fill="#475569">① 메뉴 화면</text>
    <rect width="230" height="460" rx="24" fill="white" stroke="#374151" stroke-width="2.5"/>
    <rect x="83" y="2" width="64" height="18" rx="9" fill="#374151"/>
    <rect x="12" y="26" width="206" height="58" rx="6" fill="#CBD5E1"/>
    <text x="115" y="59" text-anchor="middle" font-family="-apple-system,sans-serif" font-size="9" fill="#94A3B8">커버 이미지</text>
    <rect x="16" y="56" width="108" height="16" rx="8" fill="#1E293B" opacity="0.75"/>
    <text x="70" y="67" text-anchor="middle" font-family="-apple-system,sans-serif" font-size="8" fill="white">🍽️ 먹고가기 · T03</text>
    <circle cx="27" cy="98" r="14" fill="#E2E8F0"/>
    <rect x="48" y="90" width="74" height="10" rx="3" fill="#CBD5E1"/>
    <rect x="48" y="106" width="44" height="8" rx="3" fill="#BBF7D0"/>
    <rect x="150" y="87" width="68" height="17" rx="8" fill="#FFF8E6" stroke="#FFE3A3" stroke-width="1"/>
    <text x="184" y="99" text-anchor="middle" font-family="-apple-system,sans-serif" font-size="8" fill="#92400E">🎟️ 쿠폰 2장</text>
    <rect x="150" y="108" width="68" height="17" rx="8" fill="#F1F5F9" stroke="#E2E8F0" stroke-width="1"/>
    <text x="184" y="120" text-anchor="middle" font-family="-apple-system,sans-serif" font-size="8" fill="#4A5568">🧾 주문내역 1</text>
    <line x1="12" y1="132" x2="218" y2="132" stroke="#E2E8F0" stroke-width="1"/>
    <rect x="12" y="138" width="62" height="22" rx="7" fill="#374151"/>
    <text x="43" y="153" text-anchor="middle" font-family="-apple-system,sans-serif" font-size="10" font-weight="700" fill="white">메뉴</text>
    <rect x="80" y="138" width="62" height="22" rx="7" fill="#F1F5F9"/>
    <text x="111" y="153" text-anchor="middle" font-family="-apple-system,sans-serif" font-size="10" fill="#718096">리뷰</text>
    <rect x="148" y="138" width="70" height="22" rx="7" fill="#F1F5F9"/>
    <text x="183" y="153" text-anchor="middle" font-family="-apple-system,sans-serif" font-size="9.5" fill="#718096">매장정보</text>
    <rect x="12" y="168" width="38" height="18" rx="9" fill="#374151"/>
    <text x="31" y="181" text-anchor="middle" font-family="-apple-system,sans-serif" font-size="9" fill="white">커피</text>
    <rect x="56" y="168" width="50" height="18" rx="9" fill="#F1F5F9"/>
    <text x="81" y="181" text-anchor="middle" font-family="-apple-system,sans-serif" font-size="9" fill="#718096">논커피</text>
    <rect x="112" y="168" width="56" height="18" rx="9" fill="#F1F5F9"/>
    <text x="140" y="181" text-anchor="middle" font-family="-apple-system,sans-serif" font-size="9" fill="#718096">티·에이드</text>
    <rect x="12" y="194" width="206" height="48" rx="8" fill="white" stroke="#E2E8F0" stroke-width="1"/>
    <rect x="18" y="200" width="36" height="36" rx="6" fill="#E2E8F0"/>
    <rect x="62" y="204" width="72" height="11" rx="3" fill="#CBD5E1"/>
    <rect x="62" y="220" width="30" height="9" rx="4" fill="#DBEAFE" stroke="#BFDBFE" stroke-width="0.5"/>
    <text x="77" y="228" text-anchor="middle" font-family="-apple-system,sans-serif" font-size="7" fill="#1D4ED8">🔥 인기</text>
    <rect x="62" y="233" width="52" height="8" rx="3" fill="#E2E8F0"/>
    <circle cx="210" cy="218" r="11" fill="#374151"/>
    <text x="210" y="223" text-anchor="middle" font-family="-apple-system,sans-serif" font-size="15" font-weight="700" fill="white">+</text>
    <rect x="12" y="248" width="206" height="48" rx="8" fill="white" stroke="#E2E8F0" stroke-width="1"/>
    <rect x="18" y="254" width="36" height="36" rx="6" fill="#E2E8F0"/>
    <rect x="62" y="258" width="62" height="11" rx="3" fill="#CBD5E1"/>
    <rect x="62" y="274" width="50" height="8" rx="3" fill="#E2E8F0"/>
    <circle cx="210" cy="272" r="11" fill="#374151"/>
    <text x="210" y="277" text-anchor="middle" font-family="-apple-system,sans-serif" font-size="15" font-weight="700" fill="white">+</text>
    <rect x="12" y="302" width="206" height="48" rx="8" fill="white" stroke="#E2E8F0" stroke-width="1" opacity="0.45"/>
    <rect x="18" y="308" width="36" height="36" rx="6" fill="#E2E8F0" opacity="0.5"/>
    <rect x="12" y="430" width="206" height="22" rx="10" fill="#4A7FE0"/>
    <text x="115" y="445" text-anchor="middle" font-family="-apple-system,sans-serif" font-size="9" font-weight="700" fill="white">2개 · 주문하기 · 12,500원 ›</text>
  </g>

  <!-- ② 메뉴 상세 시트 -->
  <g id="02_menu_detail" transform="translate(355,262)">
    <text x="115" y="-8" text-anchor="middle" font-family="-apple-system,sans-serif" font-size="11" font-weight="700" fill="#475569">② 메뉴 상세 시트</text>
    <rect width="230" height="460" rx="24" fill="#E5E7EB" stroke="#374151" stroke-width="2.5"/>
    <rect x="83" y="2" width="64" height="18" rx="9" fill="#374151"/>
    <text x="115" y="66" text-anchor="middle" font-family="-apple-system,sans-serif" font-size="9" fill="#94A3B8">메뉴 화면 (뒤)</text>
    <rect x="0" y="84" width="230" height="376" rx="18" fill="white"/>
    <rect x="91" y="94" width="48" height="4" rx="2" fill="#E2E8F0"/>
    <rect x="12" y="106" width="206" height="72" rx="8" fill="#E2E8F0"/>
    <text x="115" y="146" text-anchor="middle" font-family="-apple-system,sans-serif" font-size="9" fill="#94A3B8">메뉴 이미지</text>
    <rect x="12" y="186" width="90" height="13" rx="3" fill="#CBD5E1"/>
    <rect x="108" y="186" width="36" height="13" rx="7" fill="#DBEAFE" stroke="#BFDBFE" stroke-width="1"/>
    <text x="126" y="197" text-anchor="middle" font-family="-apple-system,sans-serif" font-size="8" fill="#1D4ED8">⭐ 추천</text>
    <rect x="12" y="206" width="120" height="9" rx="3" fill="#E2E8F0"/>
    <rect x="12" y="222" width="60" height="12" rx="3" fill="#CBD5E1"/>
    <rect x="12" y="242" width="206" height="72" rx="8" fill="white" stroke="#E2E8F0" stroke-width="1.5"/>
    <text x="22" y="256" font-family="-apple-system,sans-serif" font-size="9" font-weight="700" fill="#94A3B8">사이즈 선택</text>
    <rect x="130" y="248" width="28" height="12" rx="3" fill="#FEF2F2" stroke="#FECACA" stroke-width="1"/>
    <text x="144" y="257" text-anchor="middle" font-family="-apple-system,sans-serif" font-size="7" fill="#B91C1C">필수</text>
    <circle cx="24" cy="272" r="6" fill="#4A7FE0"/>
    <circle cx="24" cy="272" r="3" fill="white"/>
    <rect x="36" y="268" width="50" height="8" rx="3" fill="#CBD5E1"/>
    <circle cx="24" cy="294" r="6" fill="white" stroke="#94A3B8" stroke-width="1.5"/>
    <rect x="36" y="290" width="44" height="8" rx="3" fill="#CBD5E1"/>
    <text x="22" y="332" font-family="-apple-system,sans-serif" font-size="10" font-weight="700" fill="#4A5568">수량</text>
    <rect x="158" y="322" width="22" height="22" rx="5" fill="#E2E8F0"/>
    <rect x="186" y="322" width="22" height="22" rx="5" fill="#E2E8F0"/>
    <rect x="12" y="350" width="206" height="34" rx="10" fill="#4A7FE0"/>
    <text x="115" y="372" text-anchor="middle" font-family="-apple-system,sans-serif" font-size="10" font-weight="700" fill="white">담기 · 5,000원</text>
  </g>

  <!-- ③ 장바구니 시트 -->
  <g id="03_cart" transform="translate(665,262)">
    <text x="115" y="-8" text-anchor="middle" font-family="-apple-system,sans-serif" font-size="11" font-weight="700" fill="#475569">③ 장바구니 시트</text>
    <rect width="230" height="460" rx="24" fill="#D1D5DB" stroke="#374151" stroke-width="2.5"/>
    <rect x="83" y="2" width="64" height="18" rx="9" fill="#374151"/>
    <text x="115" y="58" text-anchor="middle" font-family="-apple-system,sans-serif" font-size="9" fill="#94A3B8">메뉴 화면 (뒤)</text>
    <rect x="0" y="70" width="230" height="390" rx="18" fill="white"/>
    <rect x="91" y="80" width="48" height="4" rx="2" fill="#E2E8F0"/>
    <text x="22" y="100" font-family="-apple-system,sans-serif" font-size="12" font-weight="800" fill="#1A202C">🛒 장바구니</text>
    <rect x="172" y="88" width="46" height="18" rx="9" fill="#EFF6FF" stroke="#4A7FE0" stroke-width="1"/>
    <text x="195" y="101" text-anchor="middle" font-family="-apple-system,sans-serif" font-size="8" font-weight="700" fill="#4A7FE0">2개</text>
    <text x="22" y="120" font-family="-apple-system,sans-serif" font-size="9" font-weight="700" fill="#94A3B8">나</text>
    <rect x="22" y="126" width="36" height="36" rx="6" fill="#E2E8F0"/>
    <rect x="66" y="130" width="60" height="10" rx="3" fill="#CBD5E1"/>
    <rect x="66" y="146" width="44" height="8" rx="3" fill="#E2E8F0"/>
    <rect x="152" y="128" width="20" height="20" rx="4" fill="#E2E8F0"/>
    <rect x="178" y="128" width="20" height="20" rx="4" fill="#E2E8F0"/>
    <text x="22" y="178" font-family="-apple-system,sans-serif" font-size="9" font-weight="700" fill="#94A3B8">손님 2</text>
    <text x="32" y="206" text-anchor="middle" font-family="-apple-system,sans-serif" font-size="22">☕</text>
    <rect x="50" y="192" width="54" height="10" rx="3" fill="#CBD5E1"/>
    <rect x="50" y="208" width="36" height="8" rx="3" fill="#E2E8F0"/>
    <text x="196" y="203" text-anchor="middle" font-family="-apple-system,sans-serif" font-size="9" fill="#718096">× 2</text>
    <line x1="12" y1="222" x2="218" y2="222" stroke="#E2E8F0" stroke-width="1"/>
    <text x="22" y="238" font-family="-apple-system,sans-serif" font-size="9" fill="#94A3B8">결제 방식</text>
    <rect x="12" y="244" width="100" height="24" rx="7" fill="#374151"/>
    <text x="62" y="260" text-anchor="middle" font-family="-apple-system,sans-serif" font-size="9" font-weight="700" fill="white">개별 결제</text>
    <rect x="118" y="244" width="100" height="24" rx="7" fill="#F1F5F9" stroke="#E2E8F0" stroke-width="1"/>
    <text x="168" y="260" text-anchor="middle" font-family="-apple-system,sans-serif" font-size="9" font-weight="700" fill="#718096">함께 결제</text>
    <line x1="12" y1="278" x2="218" y2="278" stroke="#E2E8F0" stroke-width="1"/>
    <text x="22" y="296" font-family="-apple-system,sans-serif" font-size="10" fill="#4A5568">내 합계</text>
    <text x="207" y="296" text-anchor="end" font-family="-apple-system,sans-serif" font-size="11" font-weight="800" fill="#1A202C">5,500원</text>
    <rect x="12" y="306" width="206" height="34" rx="10" fill="#4A7FE0"/>
    <text x="115" y="328" text-anchor="middle" font-family="-apple-system,sans-serif" font-size="10" font-weight="700" fill="white">주문하기 · 5,500원</text>
  </g>

  <!-- ④ 결제 화면 -->
  <g id="04_checkout" transform="translate(45,790)">
    <text x="115" y="-8" text-anchor="middle" font-family="-apple-system,sans-serif" font-size="11" font-weight="700" fill="#475569">④ 결제 화면</text>
    <rect width="230" height="460" rx="24" fill="white" stroke="#374151" stroke-width="2.5"/>
    <rect x="83" y="2" width="64" height="18" rx="9" fill="#374151"/>
    <rect x="0" y="22" width="230" height="28" fill="#F8FAFC"/>
    <rect x="12" y="28" width="20" height="16" rx="5" fill="#E2E8F0"/>
    <rect x="78" y="30" width="74" height="12" rx="3" fill="#CBD5E1"/>
    <line x1="0" y1="50" x2="230" y2="50" stroke="#E2E8F0" stroke-width="1"/>
    <rect x="12" y="58" width="206" height="72" rx="8" fill="white" stroke="#E2E8F0" stroke-width="1.5"/>
    <text x="22" y="72" font-family="-apple-system,sans-serif" font-size="9" font-weight="700" fill="#94A3B8">주문 내용</text>
    <rect x="18" y="78" width="32" height="32" rx="6" fill="#E2E8F0"/>
    <rect x="58" y="82" width="58" height="9" rx="3" fill="#CBD5E1"/>
    <rect x="58" y="96" width="40" height="8" rx="3" fill="#E2E8F0"/>
    <text x="207" y="90" text-anchor="end" font-family="-apple-system,sans-serif" font-size="9" fill="#4A5568">5,500원</text>
    <rect x="18" y="114" width="32" height="32" rx="6" fill="#E2E8F0" opacity="0.6"/>
    <rect x="58" y="118" width="48" height="9" rx="3" fill="#E2E8F0"/>
    <text x="207" y="126" text-anchor="end" font-family="-apple-system,sans-serif" font-size="9" fill="#94A3B8">4,000원</text>
    <rect x="12" y="138" width="206" height="40" rx="8" fill="white" stroke="#E2E8F0" stroke-width="1.5"/>
    <text x="22" y="152" font-family="-apple-system,sans-serif" font-size="9" font-weight="700" fill="#94A3B8">결제 수단</text>
    <rect x="18" y="158" width="46" height="16" rx="7" fill="#4A7FE0"/>
    <text x="41" y="169" text-anchor="middle" font-family="-apple-system,sans-serif" font-size="8" fill="white">💳 카드</text>
    <rect x="70" y="158" width="60" height="16" rx="7" fill="#F1F5F9"/>
    <text x="100" y="169" text-anchor="middle" font-family="-apple-system,sans-serif" font-size="8" fill="#718096">🟡 카카오페이</text>
    <rect x="136" y="158" width="54" height="16" rx="7" fill="#F1F5F9"/>
    <text x="163" y="169" text-anchor="middle" font-family="-apple-system,sans-serif" font-size="8" fill="#718096">🔵 토스페이</text>
    <rect x="12" y="186" width="206" height="76" rx="8" fill="#FFF8E6" stroke="#FFE3A3" stroke-width="1.5"/>
    <text x="22" y="200" font-family="-apple-system,sans-serif" font-size="9" font-weight="700" fill="#92400E">🎟️ 쿠폰 할인</text>
    <circle cx="24" cy="216" r="6" fill="#4A7FE0"/>
    <circle cx="24" cy="216" r="3" fill="white"/>
    <rect x="36" y="212" width="74" height="9" rx="3" fill="#CBD5E1"/>
    <rect x="36" y="226" width="90" height="7" rx="3" fill="#E2E8F0"/>
    <circle cx="24" cy="248" r="6" fill="white" stroke="#94A3B8" stroke-width="1.5"/>
    <rect x="36" y="244" width="64" height="9" rx="3" fill="#CBD5E1"/>
    <rect x="36" y="258" width="80" height="7" rx="3" fill="#E2E8F0"/>
    <rect x="12" y="270" width="206" height="52" rx="8" fill="white" stroke="#E2E8F0" stroke-width="1.5"/>
    <text x="22" y="284" font-family="-apple-system,sans-serif" font-size="9" font-weight="700" fill="#94A3B8">약관 동의</text>
    <rect x="18" y="290" width="12" height="12" rx="3" fill="#4A7FE0"/>
    <text x="24" y="300" text-anchor="middle" font-family="-apple-system,sans-serif" font-size="8" font-weight="700" fill="white">✓</text>
    <rect x="36" y="292" width="96" height="8" rx="3" fill="#E2E8F0"/>
    <rect x="18" y="308" width="12" height="12" rx="3" fill="#4A7FE0"/>
    <text x="24" y="318" text-anchor="middle" font-family="-apple-system,sans-serif" font-size="8" font-weight="700" fill="white">✓</text>
    <rect x="36" y="310" width="110" height="8" rx="3" fill="#E2E8F0"/>
    <rect x="12" y="332" width="206" height="36" rx="10" fill="#4A7FE0"/>
    <text x="115" y="355" text-anchor="middle" font-family="-apple-system,sans-serif" font-size="11" font-weight="700" fill="white">9,500원 결제하기</text>
  </g>

  <!-- ⑤ 알림 수단 시트 -->
  <g id="05_notif_sheet" transform="translate(355,790)">
    <text x="115" y="-8" text-anchor="middle" font-family="-apple-system,sans-serif" font-size="11" font-weight="700" fill="#475569">⑤ 알림 수단 시트</text>
    <rect width="230" height="460" rx="24" fill="#CBD5E1" stroke="#374151" stroke-width="2.5"/>
    <rect x="83" y="2" width="64" height="18" rx="9" fill="#374151"/>
    <text x="115" y="44" text-anchor="middle" font-family="-apple-system,sans-serif" font-size="9" fill="#94A3B8">결제 화면 (뒤)</text>
    <rect x="0" y="58" width="230" height="402" rx="18" fill="white"/>
    <rect x="91" y="68" width="48" height="4" rx="2" fill="#E2E8F0"/>
    <rect x="22" y="80" width="112" height="12" rx="3" fill="#CBD5E1"/>
    <rect x="22" y="98" width="84" height="9" rx="3" fill="#E2E8F0"/>
    <rect x="12" y="114" width="98" height="42" rx="10" fill="#FEE500" stroke="#E6C000" stroke-width="2"/>
    <text x="61" y="132" text-anchor="middle" font-family="-apple-system,sans-serif" font-size="9" font-weight="700" fill="#191919">🟡 카카오톡</text>
    <text x="61" y="147" text-anchor="middle" font-family="-apple-system,sans-serif" font-size="9" font-weight="700" fill="#191919">연동</text>
    <rect x="120" y="114" width="98" height="42" rx="10" fill="#EFF6FF" stroke="#4A7FE0" stroke-width="2"/>
    <text x="169" y="132" text-anchor="middle" font-family="-apple-system,sans-serif" font-size="9" font-weight="700" fill="#1D4ED8">📱 휴대폰번호</text>
    <text x="169" y="147" text-anchor="middle" font-family="-apple-system,sans-serif" font-size="9" font-weight="700" fill="#1D4ED8">직접 입력</text>
    <rect x="12" y="164" width="206" height="28" rx="8" fill="white" stroke="#4A7FE0" stroke-width="1.5"/>
    <text x="28" y="182" font-family="-apple-system,sans-serif" font-size="9" fill="#94A3B8">010-1234-5678</text>
    <rect x="12" y="200" width="12" height="12" rx="3" fill="#4A7FE0"/>
    <text x="18" y="210" text-anchor="middle" font-family="-apple-system,sans-serif" font-size="8" font-weight="700" fill="white">✓</text>
    <rect x="30" y="202" width="140" height="8" rx="3" fill="#E2E8F0"/>
    <rect x="12" y="220" width="206" height="82" rx="8" fill="#FFF8E6" stroke="#FFE3A3" stroke-width="1.5"/>
    <text x="22" y="236" font-family="-apple-system,sans-serif" font-size="9" font-weight="700" fill="#92400E">🎟️ 사용 가능한 쿠폰 2장</text>
    <circle cx="24" cy="252" r="8" fill="#E6A817"/>
    <text x="24" y="257" text-anchor="middle" font-family="-apple-system,sans-serif" font-size="9" font-weight="700" fill="white">✓</text>
    <rect x="38" y="248" width="72" height="9" rx="3" fill="#A16207"/>
    <rect x="38" y="262" width="90" height="7" rx="3" fill="#CA8A04" opacity="0.4"/>
    <circle cx="24" cy="284" r="8" fill="none" stroke="#D1A050" stroke-width="2"/>
    <rect x="38" y="280" width="62" height="9" rx="3" fill="#A16207" opacity="0.6"/>
    <rect x="38" y="294" width="78" height="7" rx="3" fill="#CA8A04" opacity="0.3"/>
    <rect x="12" y="312" width="206" height="36" rx="10" fill="#4A7FE0"/>
    <text x="115" y="335" text-anchor="middle" font-family="-apple-system,sans-serif" font-size="10" font-weight="700" fill="white">7,500원 결제하기</text>
    <text x="115" y="366" text-anchor="middle" font-family="-apple-system,sans-serif" font-size="9" fill="#94A3B8">알림 없이 주문하기</text>
  </g>

  <!-- ⑥ 처리 중 -->
  <g id="06_processing" transform="translate(665,790)">
    <text x="115" y="-8" text-anchor="middle" font-family="-apple-system,sans-serif" font-size="11" font-weight="700" fill="#475569">⑥ 처리 중</text>
    <rect width="230" height="460" rx="24" fill="white" stroke="#374151" stroke-width="2.5"/>
    <rect x="83" y="2" width="64" height="18" rx="9" fill="#374151"/>
    <circle cx="115" cy="170" r="28" fill="none" stroke="#E2E8F0" stroke-width="4"/>
    <path d="M115,142 A28,28 0 0 1 143,170" fill="none" stroke="#4A7FE0" stroke-width="4" stroke-linecap="round"/>
    <rect x="48" y="212" width="134" height="14" rx="4" fill="#CBD5E1"/>
    <rect x="38" y="234" width="154" height="10" rx="3" fill="#E2E8F0"/>
    <rect x="56" y="250" width="118" height="10" rx="3" fill="#E2E8F0"/>
    <rect x="30" y="300" width="170" height="28" rx="8" fill="#EFF6FF" stroke="#BFDBFE" stroke-width="1"/>
    <text x="115" y="318" text-anchor="middle" font-family="-apple-system,sans-serif" font-size="9" fill="#4A7FE0">Step 1: 결제 처리 중</text>
    <rect x="30" y="336" width="170" height="28" rx="8" fill="#F8FAFC" stroke="#E2E8F0" stroke-width="1" opacity="0.7"/>
    <text x="115" y="354" text-anchor="middle" font-family="-apple-system,sans-serif" font-size="9" fill="#94A3B8">Step 2: 주문 접수 중</text>
  </g>

  <!-- ⑦ 주문 완료 -->
  <g id="07_done" transform="translate(45,1320)">
    <text x="115" y="-8" text-anchor="middle" font-family="-apple-system,sans-serif" font-size="11" font-weight="700" fill="#475569">⑦ 주문 완료</text>
    <rect width="230" height="460" rx="24" fill="white" stroke="#374151" stroke-width="2.5"/>
    <rect x="83" y="2" width="64" height="18" rx="9" fill="#374151"/>
    <circle cx="115" cy="56" r="22" fill="#4A7FE0"/>
    <text x="115" y="64" text-anchor="middle" font-family="-apple-system,sans-serif" font-size="18" font-weight="700" fill="white">✓</text>
    <rect x="60" y="86" width="110" height="13" rx="3" fill="#CBD5E1"/>
    <rect x="76" y="106" width="78" height="10" rx="3" fill="#E2E8F0"/>
    <circle cx="32" cy="132" r="10" fill="#22C55E"/>
    <text x="32" y="136" text-anchor="middle" font-family="-apple-system,sans-serif" font-size="9" fill="white">✓</text>
    <line x1="42" y1="132" x2="76" y2="132" stroke="#22C55E" stroke-width="2"/>
    <circle cx="86" cy="132" r="10" fill="#4A7FE0"/>
    <text x="86" y="136" text-anchor="middle" font-family="-apple-system,sans-serif" font-size="9" fill="white">2</text>
    <line x1="96" y1="132" x2="130" y2="132" stroke="#E2E8F0" stroke-width="2"/>
    <circle cx="140" cy="132" r="10" fill="white" stroke="#E2E8F0" stroke-width="2"/>
    <text x="140" y="136" text-anchor="middle" font-family="-apple-system,sans-serif" font-size="9" fill="#94A3B8">3</text>
    <line x1="150" y1="132" x2="184" y2="132" stroke="#E2E8F0" stroke-width="2"/>
    <circle cx="194" cy="132" r="10" fill="white" stroke="#E2E8F0" stroke-width="2"/>
    <text x="194" y="136" text-anchor="middle" font-family="-apple-system,sans-serif" font-size="9" fill="#94A3B8">4</text>
    <rect x="44" y="150" width="142" height="66" rx="10" fill="white" stroke="#E2E8F0" stroke-width="1.5"/>
    <text x="115" y="170" text-anchor="middle" font-family="-apple-system,sans-serif" font-size="9" fill="#718096">주문 번호</text>
    <text x="115" y="196" text-anchor="middle" font-family="-apple-system,sans-serif" font-size="26" font-weight="900" fill="#4A7FE0">A-042</text>
    <text x="115" y="211" text-anchor="middle" font-family="-apple-system,sans-serif" font-size="8" fill="#94A3B8">준비되면 알려드릴게요</text>
    <rect x="12" y="224" width="206" height="74" rx="8" fill="white" stroke="#E2E8F0" stroke-width="1.5"/>
    <rect x="22" y="234" width="78" height="9" rx="3" fill="#E2E8F0"/>
    <rect x="168" y="234" width="38" height="9" rx="3" fill="#E2E8F0"/>
    <rect x="22" y="250" width="64" height="9" rx="3" fill="#E2E8F0"/>
    <rect x="168" y="250" width="38" height="9" rx="3" fill="#E2E8F0"/>
    <line x1="22" y1="268" x2="206" y2="268" stroke="#E2E8F0" stroke-width="1"/>
    <rect x="22" y="276" width="54" height="11" rx="3" fill="#CBD5E1"/>
    <rect x="156" y="276" width="50" height="11" rx="3" fill="#CBD5E1"/>
    <rect x="12" y="308" width="206" height="34" rx="10" fill="#374151"/>
    <text x="115" y="330" text-anchor="middle" font-family="-apple-system,sans-serif" font-size="10" font-weight="700" fill="white">새 주문하기</text>
  </g>

  <!-- ⑧ 에러 화면 -->
  <g id="08_error" transform="translate(355,1320)">
    <text x="115" y="-8" text-anchor="middle" font-family="-apple-system,sans-serif" font-size="11" font-weight="700" fill="#475569">⑧ 에러 화면</text>
    <rect width="230" height="460" rx="24" fill="white" stroke="#374151" stroke-width="2.5"/>
    <rect x="83" y="2" width="64" height="18" rx="9" fill="#374151"/>
    <rect x="0" y="22" width="230" height="28" fill="#F8FAFC"/>
    <rect x="12" y="28" width="20" height="16" rx="5" fill="#E2E8F0"/>
    <rect x="70" y="30" width="90" height="12" rx="3" fill="#CBD5E1"/>
    <line x1="0" y1="50" x2="230" y2="50" stroke="#E2E8F0" stroke-width="1"/>
    <circle cx="115" cy="104" r="28" fill="#FEF2F2"/>
    <text x="115" y="114" text-anchor="middle" font-family="-apple-system,sans-serif" font-size="24">💳</text>
    <rect x="42" y="140" width="146" height="13" rx="3" fill="#CBD5E1"/>
    <rect x="30" y="162" width="170" height="9" rx="3" fill="#E2E8F0"/>
    <rect x="46" y="177" width="138" height="9" rx="3" fill="#E2E8F0"/>
    <rect x="56" y="196" width="118" height="20" rx="6" fill="#F1F5F9"/>
    <text x="115" y="210" text-anchor="middle" font-family="-apple-system,sans-serif" font-size="8.5" fill="#64748B">CODE: PAYMENT_FAILED</text>
    <rect x="12" y="228" width="206" height="34" rx="10" fill="#4A7FE0"/>
    <text x="115" y="250" text-anchor="middle" font-family="-apple-system,sans-serif" font-size="10" font-weight="700" fill="white">다른 방법으로 결제</text>
    <rect x="12" y="270" width="206" height="32" rx="10" fill="white" stroke="#E2E8F0" stroke-width="1.5"/>
    <text x="115" y="291" text-anchor="middle" font-family="-apple-system,sans-serif" font-size="10" fill="#4A5568">🛎 직원 호출</text>
    <text x="115" y="322" text-anchor="middle" font-family="-apple-system,sans-serif" font-size="9" fill="#94A3B8">결제 화면으로 돌아가기</text>
  </g>

  <!-- ⑨ 세션 만료 -->
  <g id="09_session" transform="translate(665,1320)">
    <text x="115" y="-8" text-anchor="middle" font-family="-apple-system,sans-serif" font-size="11" font-weight="700" fill="#475569">⑨ 세션 만료</text>
    <rect width="230" height="460" rx="24" fill="#F8FAFC" stroke="#374151" stroke-width="2.5"/>
    <rect x="83" y="2" width="64" height="18" rx="9" fill="#374151"/>
    <circle cx="115" cy="128" r="30" fill="#4A7FE0"/>
    <text x="115" y="138" text-anchor="middle" font-family="-apple-system,sans-serif" font-size="24">⏱️</text>
    <rect x="40" y="168" width="150" height="14" rx="3" fill="#BFDBFE"/>
    <rect x="50" y="190" width="130" height="9" rx="3" fill="#E2E8F0"/>
    <rect x="62" y="206" width="106" height="9" rx="3" fill="#E2E8F0"/>
    <rect x="30" y="234" width="170" height="54" rx="12" fill="white" stroke="#E2E8F0" stroke-width="1.5"/>
    <rect x="42" y="248" width="36" height="36" rx="8" fill="#E2E8F0"/>
    <text x="60" y="270" text-anchor="middle" font-family="-apple-system,sans-serif" font-size="18">📷</text>
    <rect x="88" y="252" width="86" height="10" rx="3" fill="#CBD5E1"/>
    <rect x="88" y="268" width="96" height="8" rx="3" fill="#E2E8F0"/>
  </g>

  <!-- FOOTER -->
  <text x="470" y="1845" text-anchor="middle" font-family="-apple-system,sans-serif" font-size="10" fill="#94A3B8">QR오더 손님 화면 와이어프레임 · 2026-06-12</text>
</svg>
